<svg width="102" height="28" viewBox="0 0 102 28" fill="none" xmlns="http://www.w3.org/2000/svg">
<path d="M31.04 22.61C30.9387 22.61 30.85 22.572 30.774 22.496C30.698 22.42 30.66 22.3313 30.66 22.23C30.66 22.1793 30.66 22.1287 30.66 22.078C30.6727 22.04 30.698 21.9893 30.736 21.926L32.218 18.411L28.57 9.804C28.5193 9.67733 28.494 9.58867 28.494 9.538C28.5067 9.424 28.551 9.329 28.627 9.253C28.703 9.16433 28.798 9.12 28.912 9.12H30.451C30.603 9.12 30.717 9.158 30.793 9.234C30.869 9.31 30.926 9.39233 30.964 9.481L33.491 15.694L36.094 9.481C36.132 9.37967 36.189 9.29733 36.265 9.234C36.341 9.158 36.455 9.12 36.607 9.12H38.127C38.2283 9.12 38.317 9.158 38.393 9.234C38.4817 9.31 38.526 9.39867 38.526 9.5C38.526 9.576 38.5007 9.67733 38.45 9.804L33.073 22.249C33.0223 22.3503 32.959 22.4327 32.883 22.496C32.807 22.572 32.693 22.61 32.541 22.61H31.04ZM43.7066 19.19C42.6933 19.19 41.8383 19.0127 41.1416 18.658C40.4576 18.3033 39.932 17.803 39.5646 17.157C39.21 16.511 39.0073 15.7573 38.9566 14.896C38.944 14.668 38.9376 14.3893 38.9376 14.06C38.9376 13.7307 38.944 13.452 38.9566 13.224C39.0073 12.35 39.2163 11.5963 39.5836 10.963C39.9636 10.317 40.4956 9.81667 41.1796 9.462C41.8763 9.10733 42.7186 8.93 43.7066 8.93C44.6946 8.93 45.5306 9.10733 46.2146 9.462C46.9113 9.81667 47.4433 10.317 47.8106 10.963C48.1906 11.5963 48.406 12.35 48.4566 13.224C48.4693 13.452 48.4756 13.7307 48.4756 14.06C48.4756 14.3893 48.4693 14.668 48.4566 14.896C48.406 15.7573 48.197 16.511 47.8296 17.157C47.475 17.803 46.9493 18.3033 46.2526 18.658C45.5686 19.0127 44.72 19.19 43.7066 19.19ZM43.7066 17.309C44.378 17.309 44.8973 17.1 45.2646 16.682C45.632 16.2513 45.8346 15.6243 45.8726 14.801C45.8853 14.611 45.8916 14.364 45.8916 14.06C45.8916 13.756 45.8853 13.509 45.8726 13.319C45.8346 12.5083 45.632 11.8877 45.2646 11.457C44.8973 11.0263 44.378 10.811 43.7066 10.811C43.0353 10.811 42.516 11.0263 42.1486 11.457C41.7813 11.8877 41.5786 12.5083 41.5406 13.319C41.528 13.509 41.5216 13.756 41.5216 14.06C41.5216 14.364 41.528 14.611 41.5406 14.801C41.5786 15.6243 41.7813 16.2513 42.1486 16.682C42.516 17.1 43.0353 17.309 43.7066 17.309ZM50.5808 19C50.4541 19 50.3464 18.9557 50.2578 18.867C50.1691 18.7783 50.1248 18.6707 50.1248 18.544V5.966C50.1248 5.83933 50.1691 5.73167 50.2578 5.643C50.3464 5.55433 50.4541 5.51 50.5808 5.51H52.1578C52.2844 5.51 52.3921 5.55433 52.4808 5.643C52.5694 5.73167 52.6138 5.83933 52.6138 5.966V18.544C52.6138 18.6707 52.5694 18.7783 52.4808 18.867C52.3921 18.9557 52.2844 19 52.1578 19H50.5808ZM59.0291 19.19C58.0157 19.19 57.1607 19.0127 56.4641 18.658C55.7801 18.3033 55.2544 17.803 54.8871 17.157C54.5324 16.511 54.3297 15.7573 54.2791 14.896C54.2664 14.668 54.2601 14.3893 54.2601 14.06C54.2601 13.7307 54.2664 13.452 54.2791 13.224C54.3297 12.35 54.5387 11.5963 54.9061 10.963C55.2861 10.317 55.8181 9.81667 56.5021 9.462C57.1987 9.10733 58.0411 8.93 59.0291 8.93C60.0171 8.93 60.8531 9.10733 61.5371 9.462C62.2337 9.81667 62.7657 10.317 63.1331 10.963C63.5131 11.5963 63.7284 12.35 63.7791 13.224C63.7917 13.452 63.7981 13.7307 63.7981 14.06C63.7981 14.3893 63.7917 14.668 63.7791 14.896C63.7284 15.7573 63.5194 16.511 63.1521 17.157C62.7974 17.803 62.2717 18.3033 61.5751 18.658C60.8911 19.0127 60.0424 19.19 59.0291 19.19ZM59.0291 17.309C59.7004 17.309 60.2197 17.1 60.5871 16.682C60.9544 16.2513 61.1571 15.6243 61.1951 14.801C61.2077 14.611 61.2141 14.364 61.2141 14.06C61.2141 13.756 61.2077 13.509 61.1951 13.319C61.1571 12.5083 60.9544 11.8877 60.5871 11.457C60.2197 11.0263 59.7004 10.811 59.0291 10.811C58.3577 10.811 57.8384 11.0263 57.4711 11.457C57.1037 11.8877 56.9011 12.5083 56.8631 13.319C56.8504 13.509 56.8441 13.756 56.8441 14.06C56.8441 14.364 56.8504 14.611 56.8631 14.801C56.9011 15.6243 57.1037 16.2513 57.4711 16.682C57.8384 17.1 58.3577 17.309 59.0291 17.309ZM69.819 19C69.059 19 68.4193 18.867 67.9 18.601C67.3807 18.335 66.9943 17.9423 66.741 17.423C66.4877 16.891 66.361 16.2323 66.361 15.447V11.134H64.86C64.7333 11.134 64.6257 11.0897 64.537 11.001C64.4483 10.9123 64.404 10.8047 64.404 10.678V9.576C64.404 9.44933 64.4483 9.34167 64.537 9.253C64.6257 9.16433 64.7333 9.12 64.86 9.12H66.361V5.966C66.361 5.83933 66.399 5.73167 66.475 5.643C66.5637 5.55433 66.6777 5.51 66.817 5.51H68.356C68.4827 5.51 68.5903 5.55433 68.679 5.643C68.7677 5.73167 68.812 5.83933 68.812 5.966V9.12H71.187C71.3137 9.12 71.4213 9.16433 71.51 9.253C71.5987 9.34167 71.643 9.44933 71.643 9.576V10.678C71.643 10.8047 71.5987 10.9123 71.51 11.001C71.4213 11.0897 71.3137 11.134 71.187 11.134H68.812V15.257C68.812 15.7763 68.9007 16.1817 69.078 16.473C69.268 16.7643 69.591 16.91 70.047 16.91H71.358C71.4847 16.91 71.5923 16.9543 71.681 17.043C71.7697 17.1317 71.814 17.2393 71.814 17.366V18.544C71.814 18.6707 71.7697 18.7783 71.681 18.867C71.5923 18.9557 71.4847 19 71.358 19H69.819ZM77.2805 19.19C75.8745 19.19 74.7598 18.7847 73.9365 17.974C73.1132 17.1633 72.6698 16.0107 72.6065 14.516C72.5938 14.3893 72.5875 14.231 72.5875 14.041C72.5875 13.8383 72.5938 13.68 72.6065 13.566C72.6572 12.616 72.8725 11.7927 73.2525 11.096C73.6452 10.3993 74.1835 9.86733 74.8675 9.5C75.5515 9.12 76.3558 8.93 77.2805 8.93C78.3065 8.93 79.1678 9.14533 79.8645 9.576C80.5612 9.994 81.0868 10.583 81.4415 11.343C81.7962 12.0903 81.9735 12.958 81.9735 13.946V14.345C81.9735 14.4717 81.9292 14.5793 81.8405 14.668C81.7518 14.7567 81.6378 14.801 81.4985 14.801H75.1905C75.1905 14.801 75.1905 14.82 75.1905 14.858C75.1905 14.896 75.1905 14.9277 75.1905 14.953C75.2032 15.3963 75.2855 15.808 75.4375 16.188C75.6022 16.5553 75.8365 16.853 76.1405 17.081C76.4572 17.309 76.8308 17.423 77.2615 17.423C77.6162 17.423 77.9138 17.3723 78.1545 17.271C78.3952 17.157 78.5915 17.0303 78.7435 16.891C78.8955 16.7517 79.0032 16.6377 79.0665 16.549C79.1805 16.397 79.2692 16.3083 79.3325 16.283C79.4085 16.245 79.5162 16.226 79.6555 16.226H81.2895C81.4162 16.226 81.5175 16.264 81.5935 16.34C81.6822 16.416 81.7202 16.511 81.7075 16.625C81.6948 16.8277 81.5872 17.0747 81.3845 17.366C81.1945 17.6573 80.9158 17.9423 80.5485 18.221C80.1812 18.4997 79.7188 18.734 79.1615 18.924C78.6168 19.1013 77.9898 19.19 77.2805 19.19ZM75.1905 13.205H79.3895V13.148C79.3895 12.654 79.3072 12.2233 79.1425 11.856C78.9778 11.4887 78.7372 11.1973 78.4205 10.982C78.1038 10.7667 77.7238 10.659 77.2805 10.659C76.8372 10.659 76.4572 10.7667 76.1405 10.982C75.8238 11.1973 75.5832 11.4887 75.4185 11.856C75.2665 12.2233 75.1905 12.654 75.1905 13.148V13.205ZM83.9903 19C83.8637 19 83.756 18.9557 83.6673 18.867C83.5787 18.7783 83.5343 18.6707 83.5343 18.544V5.966C83.5343 5.83933 83.5787 5.73167 83.6673 5.643C83.756 5.55433 83.8637 5.51 83.9903 5.51H85.5673C85.694 5.51 85.8017 5.55433 85.8903 5.643C85.979 5.73167 86.0233 5.83933 86.0233 5.966V18.544C86.0233 18.6707 85.979 18.7783 85.8903 18.867C85.8017 18.9557 85.694 19 85.5673 19H83.9903Z" fill="#2E384D"/>
<g clip-path="url(#clip0_0_17)">
<path fill-rule="evenodd" clip-rule="evenodd" d="M14 0V9.33333C14 17.0653 7.73199 23.3333 0 23.3333L0 14C0 6.26801 6.26801 0 14 0Z" fill="#2CC2A5"/>
<path fill-rule="evenodd" clip-rule="evenodd" d="M21.1362 5.78827L17.944 14.5587C15.2995 21.8244 7.26569 25.5706 0 22.9261L3.19219 14.1557C5.83668 6.88999 13.8705 3.14377 21.1362 5.78827Z" fill="#2E5BFF"/>
</g>
<defs>
<clipPath id="clip0_0_17">
<rect width="22" height="24" fill="white"/>
</clipPath>
</defs>
</svg>
